<svg version="1.1" viewBox="0 0 640 400" xmlns="http://www.w3.org/2000/svg" xmlns:xlink="http://www.w3.org/1999/xlink" xmlns:svgjs="http://svgjs.dev/svgjs" matcher="0.06553150464539725"><g viewBox="0 0 640 400" matcher="0.06553150464539725"><g matcher="0.06553150464539725"><g matcher="0.06553150464539725"><g matcher="0.06553150464539725"><svg viewBox="0 0 640 400" data-background-color="#ffa458" preserveAspectRatio="xMidYMid meet" height="400" width="640" xmlns="http://www.w3.org/2000/svg" xmlns:xlink="http://www.w3.org/1999/xlink"><rect width="640" height="400" x="0" y="0" opacity="1" fill="#ffa458" data-fill-palette-color="background" id="background"></rect><g id="tight-bounds" transform="matrix(1,0,0,1,160,20)"><svg viewBox="0 0 320 360" height="360" width="320"><g><svg></svg></g><g><svg viewBox="0 0 320 360" height="360" width="320"><g><path xmlns="http://www.w3.org/2000/svg" d="M307.925 179.999l6.575-11.387c11.322-19.607 4.604-44.679-15.003-56.001l-11.387-6.575v-13.151c0-22.639-18.354-40.994-40.994-40.994h-13.151l-6.575-11.387c-11.322-19.607-36.393-26.325-56.001-15.003l-11.39 6.572-11.387-6.576c-19.607-11.318-44.679-4.6-56.001 15.007l-6.575 11.387h-13.151c-22.639 0-40.994 18.354-40.994 40.994v13.151l-11.387 6.575c-19.607 11.322-26.325 36.393-15.003 56.001l6.572 11.387-6.576 11.387c-11.318 19.607-4.6 44.679 15.007 56l11.387 6.576v13.15c0 22.639 18.354 40.994 40.994 40.994h13.151l6.575 11.387c11.322 19.607 36.393 26.325 56.001 15.003l11.387-6.571 11.387 6.575c19.607 11.322 44.679 4.604 56-15.003l6.576-11.387h13.15c22.639 0 40.994-18.354 40.994-40.994v-13.151l11.387-6.575c19.607-11.322 26.325-36.393 15.003-56.001zM297.702 115.716c8.655 4.996 14.842 13.062 17.428 22.713 2.586 9.65 1.261 19.734-3.735 28.384l-5.538 9.596-17.747-30.74v-35.494zM251.155 271.155l-57.791 33.365h-66.731l-57.791-33.365-33.365-57.791v-66.731l33.365-57.791 57.791-33.365h66.731l57.791 33.365 33.365 57.791v66.731zM284.517 220.539v31.351l-27.151 15.676zM247.566 277.366l-15.676 27.151h-31.351zM187.15 308.106l-27.151 15.676-27.151-15.676zM119.459 304.517h-31.352l-15.676-27.151zM62.632 267.566l-27.151-15.676v-31.351zM31.891 207.15l-15.675-27.151 15.675-27.151zM35.481 139.459v-31.352l27.151-15.676zM72.431 82.632l15.676-27.151h31.352zM132.848 51.891l27.151-15.675 27.151 15.675zM200.539 55.481h31.351l15.676 27.151zM257.366 92.431l27.151 15.676v31.352zM288.106 152.848l15.676 27.151-15.676 27.151zM247.112 55.481c9.992 0 19.384 3.889 26.452 10.956 7.063 7.063 10.956 16.46 10.957 26.452v11.079l-30.741-17.747-17.747-30.74zM173.18 28.606c8.655-4.996 18.735-6.322 28.385-3.735 9.65 2.586 17.716 8.777 22.712 17.428l5.538 9.596h-35.494l-30.741-17.747zM95.716 42.295c4.996-8.655 13.062-14.842 22.713-17.428 9.65-2.586 19.734-1.261 28.384 3.736l9.596 5.537-30.74 17.747h-35.494zM35.481 92.885c0-9.992 3.889-19.384 10.956-26.452 7.063-7.063 16.46-10.956 26.452-10.956h11.079l-17.747 30.74-30.74 17.747zM8.606 166.817c-4.996-8.655-6.322-18.735-3.735-28.385 2.586-9.65 8.777-17.716 17.428-22.712l9.596-5.538v35.495l-17.747 30.74zM22.295 244.281c-8.655-4.996-14.842-13.062-17.428-22.712-2.586-9.65-1.261-19.734 3.736-28.385l5.537-9.596 17.747 30.74v35.495zM72.885 304.517c-9.992 0-19.384-3.889-26.452-10.957-7.063-7.063-10.956-16.46-10.956-26.451v-11.08l30.74 17.747 17.747 30.741zM146.817 331.391c-8.655 4.996-18.735 6.322-28.385 3.735-9.65-2.586-17.716-8.777-22.712-17.428l-5.538-9.596h35.495l30.74 17.747zM224.281 317.702c-4.996 8.655-13.062 14.842-22.712 17.428-9.65 2.586-19.734 1.261-28.385-3.735l-9.596-5.538 30.74-17.747h35.495zM284.517 267.112c0 9.992-3.889 19.384-10.957 26.452-7.063 7.063-16.46 10.956-26.451 10.957h-11.08l17.747-30.741 30.741-17.747zM315.13 221.565c-2.586 9.65-8.777 17.716-17.428 22.712l-9.596 5.538v-35.494l17.747-30.741 5.538 9.596c4.996 8.658 6.326 18.739 3.739 28.389z" fill="#ffffff" fill-rule="nonzero" stroke="none" stroke-width="1" stroke-linecap="butt" stroke-linejoin="miter" stroke-miterlimit="10" stroke-dasharray="" stroke-dashoffset="0" font-family="none" font-weight="none" font-size="none" text-anchor="none" style="mix-blend-mode: normal" data-fill-palette-color="tertiary"></path></g><g transform="matrix(1,0,0,1,64,148.77221664811776)"><svg viewBox="0 0 192 62.455566703764504" height="62.455566703764504" width="192"><g><svg viewBox="0 0 192.95999999999998 62.76784453728332" height="62.455566703764504" width="192"><g><rect width="192.95999999999998" height="1.5872403586630712" x="0" y="39.424923742685394" fill="#ffffff" opacity="1" stroke-width="0" stroke="transparent" fill-opacity="1" class="rect-borderrectangle-0" data-fill-palette-color="secondary" rx="1%" id="borderrectangle-0" data-palette-color="#ffffff"></rect></g><g transform="matrix(1,0,0,1,0.47999999999998977,45.16724357428844)"><svg viewBox="0 0 192 17.600600962994868" height="17.600600962994868" width="192"><g id="textblocktransform"><svg viewBox="0 0 192 17.600600962994868" height="17.600600962994868" width="192" id="textblock"><g><svg viewBox="0 0 192 17.600600962994868" height="17.600600962994868" width="192"><g transform="matrix(1,0,0,1,0,0)"><svg width="192" viewBox="1.6500000953674316 -28.149999618530273 451.04552026367185 41.349998474121094" height="17.600600962994868" data-palette-color="#ffffff"><g transform="matrix(1,0,0,1,0,0)"><g><svg width="24.250337890625" viewBox="1.7799999713897705 -36.36000061035156 107.02000427246094 36.36000061035156" height="8.239" data-palette-color="#ffffff" id="scriptelement" x="428.4451762969325" y="-8.239"><path d="M12.91-30.02L1.78-30.02 1.78-36.36 31.64-36.36 31.64-30.02 20.51-30.02 20.51 0 12.91 0 12.91-30.02ZM44.26 0L36.57 0 36.57-36.36 50.92-36.36Q55.04-36.36 57.96-34.9 60.88-33.43 62.42-30.76 63.95-28.09 63.95-24.49L63.95-24.49Q63.95-20.86 62.39-18.26 60.83-15.66 57.87-14.28 54.92-12.89 50.73-12.89L50.73-12.89 41.12-12.89 41.12-19.07 49.48-19.07Q51.68-19.07 53.14-19.67 54.6-20.28 55.32-21.48 56.03-22.69 56.03-24.49L56.03-24.49Q56.03-26.3 55.32-27.54 54.6-28.78 53.13-29.43 51.67-30.08 49.45-30.08L49.45-30.08 44.26-30.08 44.26 0ZM47.92-16.55L56.21-16.55 65.25 0 56.76 0 47.92-16.55ZM69.38 0L69.38-36.36 78.87-36.36 88.88-11.93 89.31-11.93 99.32-36.36 108.8-36.36 108.8 0 101.34 0 101.34-23.67 101.04-23.67 91.63-0.18 86.55-0.18 77.14-23.76 76.84-23.76 76.84 0 69.38 0Z" opacity="1" transform="matrix(1,0,0,1,0,0)" fill="#ffffff" class="undefined-123" data-fill-palette-color="primary" id="text-123"></path></svg></g></g><path d="M1.65-13.95Q1.65-18.15 3.33-21.4 5-24.65 7.88-26.4 10.75-28.15 14.3-28.15L14.3-28.15Q17.4-28.15 19.73-26.9 22.05-25.65 23.45-23.75L23.45-23.75 23.45-27.7 30.5-27.7 30.5 0 23.45 0 23.45-4.05Q22.1-2.1 19.73-0.83 17.35 0.45 14.25 0.45L14.25 0.45Q10.75 0.45 7.88-1.35 5-3.15 3.33-6.43 1.65-9.7 1.65-13.95L1.65-13.95ZM23.45-13.85Q23.45-16.4 22.45-18.23 21.45-20.05 19.75-21.03 18.05-22 16.1-22L16.1-22Q14.15-22 12.5-21.05 10.85-20.1 9.83-18.28 8.8-16.45 8.8-13.95L8.8-13.95Q8.8-11.45 9.83-9.58 10.85-7.7 12.53-6.7 14.2-5.7 16.1-5.7L16.1-5.7Q18.05-5.7 19.75-6.68 21.45-7.65 22.45-9.47 23.45-11.3 23.45-13.85L23.45-13.85ZM71.75-28.1Q76.85-28.1 79.97-24.98 83.1-21.85 83.1-16.25L83.1-16.25 83.1 0 76.1 0 76.1-15.3Q76.1-18.55 74.45-20.28 72.8-22 69.95-22L69.95-22Q67.1-22 65.42-20.28 63.75-18.55 63.75-15.3L63.75-15.3 63.75 0 56.75 0 56.75-15.3Q56.75-18.55 55.1-20.28 53.45-22 50.6-22L50.6-22Q47.7-22 46.02-20.28 44.35-18.55 44.35-15.3L44.35-15.3 44.35 0 37.35 0 37.35-27.7 44.35-27.7 44.35-24.35Q45.7-26.1 47.82-27.1 49.95-28.1 52.5-28.1L52.5-28.1Q55.75-28.1 58.3-26.73 60.85-25.35 62.25-22.8L62.25-22.8Q63.6-25.2 66.17-26.65 68.75-28.1 71.75-28.1L71.75-28.1ZM87.95-13.95Q87.95-18.15 89.62-21.4 91.3-24.65 94.17-26.4 97.05-28.15 100.6-28.15L100.6-28.15Q103.7-28.15 106.02-26.9 108.35-25.65 109.75-23.75L109.75-23.75 109.75-27.7 116.8-27.7 116.8 0 109.75 0 109.75-4.05Q108.4-2.1 106.02-0.83 103.65 0.45 100.55 0.45L100.55 0.45Q97.05 0.45 94.17-1.35 91.3-3.15 89.62-6.43 87.95-9.7 87.95-13.95L87.95-13.95ZM109.75-13.85Q109.75-16.4 108.75-18.23 107.75-20.05 106.05-21.03 104.35-22 102.4-22L102.4-22Q100.45-22 98.8-21.05 97.15-20.1 96.12-18.28 95.1-16.45 95.1-13.95L95.1-13.95Q95.1-11.45 96.12-9.58 97.15-7.7 98.82-6.7 100.5-5.7 102.4-5.7L102.4-5.7Q104.35-5.7 106.05-6.68 107.75-7.65 108.75-9.47 109.75-11.3 109.75-13.85L109.75-13.85ZM142.24-22.05L130.04-5.75 142.39-5.75 142.39 0 122.09 0 122.09-5.65 134.19-21.95 122.14-21.95 122.14-27.7 142.24-27.7 142.24-22.05ZM160.09 0.45Q156.09 0.45 152.89-1.33 149.69-3.1 147.87-6.35 146.04-9.6 146.04-13.85L146.04-13.85Q146.04-18.1 147.92-21.35 149.79-24.6 153.04-26.38 156.29-28.15 160.29-28.15L160.29-28.15Q164.29-28.15 167.54-26.38 170.79-24.6 172.67-21.35 174.54-18.1 174.54-13.85L174.54-13.85Q174.54-9.6 172.62-6.35 170.69-3.1 167.42-1.33 164.14 0.45 160.09 0.45L160.09 0.45ZM160.09-5.65Q161.99-5.65 163.67-6.58 165.34-7.5 166.34-9.35 167.34-11.2 167.34-13.85L167.34-13.85Q167.34-17.8 165.27-19.93 163.19-22.05 160.19-22.05L160.19-22.05Q157.19-22.05 155.17-19.93 153.14-17.8 153.14-13.85L153.14-13.85Q153.14-9.9 155.12-7.78 157.09-5.65 160.09-5.65L160.09-5.65ZM195.04-28.1Q199.99-28.1 203.04-24.98 206.09-21.85 206.09-16.25L206.09-16.25 206.09 0 199.09 0 199.09-15.3Q199.09-18.6 197.44-20.38 195.79-22.15 192.94-22.15L192.94-22.15Q190.04-22.15 188.36-20.38 186.69-18.6 186.69-15.3L186.69-15.3 186.69 0 179.69 0 179.69-27.7 186.69-27.7 186.69-24.25Q188.09-26.05 190.26-27.08 192.44-28.1 195.04-28.1L195.04-28.1ZM235.23 0.45Q231.83 0.45 229.13-0.78 226.43-2 224.86-4.1 223.28-6.2 223.13-8.75L223.13-8.75 230.18-8.75Q230.38-7.15 231.76-6.1 233.13-5.05 235.18-5.05L235.18-5.05Q237.18-5.05 238.31-5.85 239.43-6.65 239.43-7.9L239.43-7.9Q239.43-9.25 238.06-9.93 236.68-10.6 233.68-11.4L233.68-11.4Q230.58-12.15 228.61-12.95 226.63-13.75 225.21-15.4 223.78-17.05 223.78-19.85L223.78-19.85Q223.78-22.15 225.11-24.05 226.43-25.95 228.91-27.05 231.38-28.15 234.73-28.15L234.73-28.15Q239.68-28.15 242.63-25.68 245.58-23.2 245.88-19L245.88-19 239.18-19Q239.03-20.65 237.81-21.63 236.58-22.6 234.53-22.6L234.53-22.6Q232.63-22.6 231.61-21.9 230.58-21.2 230.58-19.95L230.58-19.95Q230.58-18.55 231.98-17.82 233.38-17.1 236.33-16.35L236.33-16.35Q239.33-15.6 241.28-14.8 243.23-14 244.66-12.33 246.08-10.65 246.13-7.9L246.13-7.9Q246.13-5.5 244.81-3.6 243.48-1.7 241.01-0.63 238.53 0.45 235.23 0.45L235.23 0.45ZM250.08-13.85Q250.08-18.15 251.83-21.38 253.58-24.6 256.68-26.38 259.78-28.15 263.78-28.15L263.78-28.15Q268.93-28.15 272.31-25.58 275.68-23 276.83-18.35L276.83-18.35 269.28-18.35Q268.68-20.15 267.26-21.18 265.83-22.2 263.73-22.2L263.73-22.2Q260.73-22.2 258.98-20.03 257.23-17.85 257.23-13.85L257.23-13.85Q257.23-9.9 258.98-7.73 260.73-5.55 263.73-5.55L263.73-5.55Q267.98-5.55 269.28-9.35L269.28-9.35 276.83-9.35Q275.68-4.85 272.28-2.2 268.88 0.45 263.78 0.45L263.78 0.45Q259.78 0.45 256.68-1.33 253.58-3.1 251.83-6.33 250.08-9.55 250.08-13.85L250.08-13.85ZM288.98-23.4Q290.33-25.6 292.5-26.85 294.68-28.1 297.48-28.1L297.48-28.1 297.48-20.75 295.63-20.75Q292.33-20.75 290.65-19.2 288.98-17.65 288.98-13.8L288.98-13.8 288.98 0 281.98 0 281.98-27.7 288.98-27.7 288.98-23.4ZM300.38-13.95Q300.38-18.15 302.05-21.4 303.73-24.65 306.6-26.4 309.48-28.15 313.03-28.15L313.03-28.15Q316.13-28.15 318.45-26.9 320.78-25.65 322.18-23.75L322.18-23.75 322.18-27.7 329.23-27.7 329.23 0 322.18 0 322.18-4.05Q320.83-2.1 318.45-0.83 316.08 0.45 312.98 0.45L312.98 0.45Q309.48 0.45 306.6-1.35 303.73-3.15 302.05-6.43 300.38-9.7 300.38-13.95L300.38-13.95ZM322.18-13.85Q322.18-16.4 321.18-18.23 320.18-20.05 318.48-21.03 316.78-22 314.83-22L314.83-22Q312.88-22 311.23-21.05 309.58-20.1 308.55-18.28 307.53-16.45 307.53-13.95L307.53-13.95Q307.53-11.45 308.55-9.58 309.58-7.7 311.25-6.7 312.93-5.7 314.83-5.7L314.83-5.7Q316.78-5.7 318.48-6.68 320.18-7.65 321.18-9.47 322.18-11.3 322.18-13.85L322.18-13.85ZM343.07-23.7Q344.42-25.6 346.8-26.88 349.17-28.15 352.22-28.15L352.22-28.15Q355.77-28.15 358.65-26.4 361.52-24.65 363.2-21.43 364.87-18.2 364.87-13.95L364.87-13.95Q364.87-9.7 363.2-6.43 361.52-3.15 358.65-1.35 355.77 0.45 352.22 0.45L352.22 0.45Q349.17 0.45 346.85-0.8 344.52-2.05 343.07-3.95L343.07-3.95 343.07 13.2 336.07 13.2 336.07-27.7 343.07-27.7 343.07-23.7ZM357.72-13.95Q357.72-16.45 356.7-18.28 355.67-20.1 354-21.05 352.32-22 350.37-22L350.37-22Q348.47-22 346.8-21.03 345.12-20.05 344.1-18.2 343.07-16.35 343.07-13.85L343.07-13.85Q343.07-11.35 344.1-9.5 345.12-7.65 346.8-6.68 348.47-5.7 350.37-5.7L350.37-5.7Q352.32-5.7 354-6.7 355.67-7.7 356.7-9.55 357.72-11.4 357.72-13.95L357.72-13.95ZM395.72-14.45Q395.72-12.95 395.52-11.75L395.52-11.75 375.27-11.75Q375.52-8.75 377.37-7.05 379.22-5.35 381.92-5.35L381.92-5.35Q385.82-5.35 387.47-8.7L387.47-8.7 395.02-8.7Q393.82-4.7 390.42-2.13 387.02 0.45 382.07 0.45L382.07 0.45Q378.07 0.45 374.9-1.33 371.72-3.1 369.95-6.35 368.17-9.6 368.17-13.85L368.17-13.85Q368.17-18.15 369.92-21.4 371.67-24.65 374.82-26.4 377.97-28.15 382.07-28.15L382.07-28.15Q386.02-28.15 389.15-26.45 392.27-24.75 394-21.63 395.72-18.5 395.72-14.45L395.72-14.45ZM375.32-16.45L388.47-16.45Q388.42-19.15 386.52-20.78 384.62-22.4 381.87-22.4L381.87-22.4Q379.27-22.4 377.5-20.83 375.72-19.25 375.32-16.45L375.32-16.45ZM407.82-23.4Q409.17-25.6 411.34-26.85 413.52-28.1 416.32-28.1L416.32-28.1 416.32-20.75 414.47-20.75Q411.17-20.75 409.49-19.2 407.82-17.65 407.82-13.8L407.82-13.8 407.82 0 400.82 0 400.82-27.7 407.82-27.7 407.82-23.4Z" opacity="1" transform="matrix(1,0,0,1,0,0)" fill="#ffffff" class="wordmark-text-0" data-fill-palette-color="primary" id="text-0"></path></svg></g></svg></g></svg></g></svg></g><g transform="matrix(1,0,0,1,59.25665440307308,0)"><svg viewBox="0 0 74.44669119385382 35.26984426974542" height="35.26984426974542" width="74.44669119385382"><g><svg xmlns="http://www.w3.org/2000/svg" viewBox="7.158002853393555 22.8439998626709 90.00199890136719 54.31199645996094" x="8" y="0" height="35.26984426974542" width="58.44669119385382" class="icon-icon-0" data-fill-palette-color="accent" id="icon-0"><path d="M97.16 73.75c0 1.875-1.531 3.406-3.406 3.406l-83.19 0c-1.875 0-3.406-1.531-3.406-3.406l0-47.5c0-1.875 1.531-3.406 3.406-3.406l83.19 0c1.875 0 3.406 1.531 3.406 3.406l0 47.5m-9.188-1.594l0-44.31-70.906 0 0 44.31 70.906 0m-72.66-22.16c0-1.629-1.34-2.938-2.969-2.938-1.629 0-2.938 1.308-2.938 2.938 0 1.629 1.308 2.969 2.938 2.969 1.629 0 2.969-1.34 2.969-2.969" color="#FFFFFF" fill="#ffffff" data-fill-palette-color="accent"></path><path d="M32 39.977l7.444 20.04 22.643 0.048 8.757-24.34 7.134 0 0-2.219-9.02 0-2.123 6.466" color="#FFFFFF" fill="#ffffff" data-fill-palette-color="accent"></path><path d="M46.807 64.861a3.185 3.185 0 0 1-6.37 0 3.185 3.185 0 1 1 6.37 0" color="#FFFFFF" fill="#ffffff" data-fill-palette-color="accent"></path><path d="M61.11 64.922a3.185 3.185 0 0 1-6.37 0 3.185 3.185 0 1 1 6.37 0" color="#FFFFFF" fill="#ffffff" data-fill-palette-color="accent"></path></svg></g></svg></g><g><rect width="22.10465440307309" height="1.5872403586630712" y="32.682603911082346" x="133.7033455969269" fill="#ffffff" data-fill-palette-color="secondary"></rect><rect width="22.10465440307309" height="1.5872403586630712" y="32.682603911082346" x="37.15199999999999" fill="#ffffff" data-fill-palette-color="secondary"></rect></g></svg></g></svg></g></svg></g><defs></defs></svg><rect width="320" height="360" fill="none" stroke="none" visibility="hidden"></rect></g></svg></g></g></g></g><rect width="187.62591552734364" height="29.51302719116211" x="219.48394775390625" y="208.71475219726557" rx="2.5" ry="2.5" fill="transparent" class="logo-element-hover-target"></rect><rect width="70.15582275390614" height="47.094375610351534" x="285.9220886230469" y="163.7722206115722" rx="2.5" ry="2.5" fill="transparent" class="logo-element-hover-target"></rect></svg>