<svg version="1.1" viewBox="0 0 640 400" xmlns="http://www.w3.org/2000/svg" xmlns:xlink="http://www.w3.org/1999/xlink" xmlns:svgjs="http://svgjs.dev/svgjs" matcher="0.3201385354881141"><g viewBox="0 0 640 400" matcher="0.3201385354881141"><g matcher="0.3201385354881141"><g matcher="0.3201385354881141"><g matcher="0.3201385354881141"><svg viewBox="0 0 640 400" data-background-color="#4f46e5" preserveAspectRatio="xMidYMid meet" height="400" width="640" xmlns="http://www.w3.org/2000/svg" xmlns:xlink="http://www.w3.org/1999/xlink"><rect width="640" height="400" x="0" y="0" opacity="1" fill="#4f46e5" data-fill-palette-color="background" id="background"></rect><g id="tight-bounds" transform="matrix(1,0,0,1,160,20)"><svg viewBox="0 0 320 360" height="360" width="320"><g><svg></svg></g><g><svg viewBox="0 0 320 360" height="360" width="320"><g><path xmlns="http://www.w3.org/2000/svg" d="M307.925 179.999l6.575-11.387c11.322-19.607 4.604-44.679-15.003-56.001l-11.387-6.575v-13.151c0-22.639-18.354-40.994-40.994-40.994h-13.151l-6.575-11.387c-11.322-19.607-36.393-26.325-56.001-15.003l-11.39 6.572-11.387-6.576c-19.607-11.318-44.679-4.6-56.001 15.007l-6.575 11.387h-13.151c-22.639 0-40.994 18.354-40.994 40.994v13.151l-11.387 6.575c-19.607 11.322-26.325 36.393-15.003 56.001l6.572 11.387-6.576 11.387c-11.318 19.607-4.6 44.679 15.007 56l11.387 6.576v13.15c0 22.639 18.354 40.994 40.994 40.994h13.151l6.575 11.387c11.322 19.607 36.393 26.325 56.001 15.003l11.387-6.571 11.387 6.575c19.607 11.322 44.679 4.604 56-15.003l6.576-11.387h13.15c22.639 0 40.994-18.354 40.994-40.994v-13.151l11.387-6.575c19.607-11.322 26.325-36.393 15.003-56.001zM297.702 115.716c8.655 4.996 14.842 13.062 17.428 22.713 2.586 9.65 1.261 19.734-3.735 28.384l-5.538 9.596-17.747-30.74v-35.494zM251.155 271.155l-57.791 33.365h-66.731l-57.791-33.365-33.365-57.791v-66.731l33.365-57.791 57.791-33.365h66.731l57.791 33.365 33.365 57.791v66.731zM284.517 220.539v31.351l-27.151 15.676zM247.566 277.366l-15.676 27.151h-31.351zM187.15 308.106l-27.151 15.676-27.151-15.676zM119.459 304.517h-31.352l-15.676-27.151zM62.632 267.566l-27.151-15.676v-31.351zM31.891 207.15l-15.675-27.151 15.675-27.151zM35.481 139.459v-31.352l27.151-15.676zM72.431 82.632l15.676-27.151h31.352zM132.848 51.891l27.151-15.675 27.151 15.675zM200.539 55.481h31.351l15.676 27.151zM257.366 92.431l27.151 15.676v31.352zM288.106 152.848l15.676 27.151-15.676 27.151zM247.112 55.481c9.992 0 19.384 3.889 26.452 10.956 7.063 7.063 10.956 16.46 10.957 26.452v11.079l-30.741-17.747-17.747-30.74zM173.18 28.606c8.655-4.996 18.735-6.322 28.385-3.735 9.65 2.586 17.716 8.777 22.712 17.428l5.538 9.596h-35.494l-30.741-17.747zM95.716 42.295c4.996-8.655 13.062-14.842 22.713-17.428 9.65-2.586 19.734-1.261 28.384 3.736l9.596 5.537-30.74 17.747h-35.494zM35.481 92.885c0-9.992 3.889-19.384 10.956-26.452 7.063-7.063 16.46-10.956 26.452-10.956h11.079l-17.747 30.74-30.74 17.747zM8.606 166.817c-4.996-8.655-6.322-18.735-3.735-28.385 2.586-9.65 8.777-17.716 17.428-22.712l9.596-5.538v35.495l-17.747 30.74zM22.295 244.281c-8.655-4.996-14.842-13.062-17.428-22.712-2.586-9.65-1.261-19.734 3.736-28.385l5.537-9.596 17.747 30.74v35.495zM72.885 304.517c-9.992 0-19.384-3.889-26.452-10.957-7.063-7.063-10.956-16.46-10.956-26.451v-11.08l30.74 17.747 17.747 30.741zM146.817 331.391c-8.655 4.996-18.735 6.322-28.385 3.735-9.65-2.586-17.716-8.777-22.712-17.428l-5.538-9.596h35.495l30.74 17.747zM224.281 317.702c-4.996 8.655-13.062 14.842-22.712 17.428-9.65 2.586-19.734 1.261-28.385-3.735l-9.596-5.538 30.74-17.747h35.495zM284.517 267.112c0 9.992-3.889 19.384-10.957 26.452-7.063 7.063-16.46 10.956-26.451 10.957h-11.08l17.747-30.741 30.741-17.747zM315.13 221.565c-2.586 9.65-8.777 17.716-17.428 22.712l-9.596 5.538v-35.494l17.747-30.741 5.538 9.596c4.996 8.658 6.326 18.739 3.739 28.389z" fill="#ffffff" fill-rule="nonzero" stroke="none" stroke-width="1" stroke-linecap="butt" stroke-linejoin="miter" stroke-miterlimit="10" stroke-dasharray="" stroke-dashoffset="0" font-family="none" font-weight="none" font-size="none" text-anchor="none" style="mix-blend-mode: normal" data-fill-palette-color="tertiary"></path></g><g transform="matrix(1,0,0,1,64,142.34687740816094)"><svg viewBox="0 0 192 75.30624518367816" height="75.30624518367816" width="192"><g><svg viewBox="0 0 192.95999999999998 75.68277640959654" height="75.30624518367816" width="192"><g><rect width="192.95999999999998" height="1.5775833322955037" x="0" y="52.481877710378896" fill="#ffffff" opacity="1" stroke-width="0" stroke="transparent" fill-opacity="1" class="rect-r-0" data-fill-palette-color="primary" rx="1%" id="r-0" data-palette-color="#ffffff"></rect></g><g transform="matrix(1,0,0,1,0.47999999999998977,58.18926034187729)"><svg viewBox="0 0 192 17.49351606771925" height="17.49351606771925" width="192"><g id="textblocktransform"><svg viewBox="0 0 192 17.49351606771925" height="17.49351606771925" width="192" id="textblock"><g><svg viewBox="0 0 192 17.49351606771925" height="17.49351606771925" width="192"><g transform="matrix(1,0,0,1,0,0)"><svg width="192" viewBox="1.5 -26.549999237060547 408.25842529296875 37.19999694824219" height="17.49351606771925" data-palette-color="#ffffff"><g transform="matrix(1,0,0,1,0,0)"><g><svg width="23.9589453125" viewBox="1.7799999713897705 -36.36000061035156 107.02000427246094 36.36000061035156" height="8.14" data-palette-color="#ffffff" id="scriptelement" x="385.79947983577176" y="-8.14"><path d="M12.91-30.02L1.78-30.02 1.78-36.36 31.64-36.36 31.64-30.02 20.51-30.02 20.51 0 12.91 0 12.91-30.02ZM44.26 0L36.57 0 36.57-36.36 50.92-36.36Q55.04-36.36 57.96-34.9 60.88-33.43 62.42-30.76 63.95-28.09 63.95-24.49L63.95-24.49Q63.95-20.86 62.39-18.26 60.83-15.66 57.87-14.28 54.92-12.89 50.73-12.89L50.73-12.89 41.12-12.89 41.12-19.07 49.48-19.07Q51.68-19.07 53.14-19.67 54.6-20.28 55.32-21.48 56.03-22.69 56.03-24.49L56.03-24.49Q56.03-26.3 55.32-27.54 54.6-28.78 53.13-29.43 51.67-30.08 49.45-30.08L49.45-30.08 44.26-30.08 44.26 0ZM47.92-16.55L56.21-16.55 65.25 0 56.76 0 47.92-16.55ZM69.38 0L69.38-36.36 78.87-36.36 88.88-11.93 89.31-11.93 99.32-36.36 108.8-36.36 108.8 0 101.34 0 101.34-23.67 101.04-23.67 91.63-0.18 86.55-0.18 77.14-23.76 76.84-23.76 76.84 0 69.38 0Z" opacity="1" transform="matrix(1,0,0,1,0,0)" fill="#ffffff" class="undefined-123" data-fill-palette-color="primary" id="w-123"></path></svg></g></g><path d="M1.5-7.55L1.5-7.55Q1.5-10.05 2.93-11.88 4.35-13.7 6.85-14.7 9.35-15.7 12.65-15.7L12.65-15.7Q14.4-15.7 16.35-15.43 18.3-15.15 19.8-14.6L19.8-14.6 19.8-16.5Q19.8-19.5 18-21.23 16.2-22.95 12.9-22.95L12.9-22.95Q10.75-22.95 8.78-22.18 6.8-21.4 4.6-19.95L4.6-19.95 3-23.05Q5.55-24.8 8.1-25.68 10.65-26.55 13.4-26.55L13.4-26.55Q18.4-26.55 21.3-23.78 24.2-21 24.2-16.05L24.2-16.05 24.2-5Q24.2-4.2 24.53-3.83 24.85-3.45 25.6-3.4L25.6-3.4 25.6 0Q24.95 0.1 24.48 0.15 24 0.2 23.7 0.2L23.7 0.2Q22.15 0.2 21.38-0.65 20.6-1.5 20.5-2.45L20.5-2.45 20.4-4.1Q18.7-1.9 15.95-0.7 13.2 0.5 10.5 0.5L10.5 0.5Q7.9 0.5 5.85-0.58 3.8-1.65 2.65-3.48 1.5-5.3 1.5-7.55ZM18.5-5.7L18.5-5.7Q19.1-6.4 19.45-7.13 19.8-7.85 19.8-8.35L19.8-8.35 19.8-11.6Q18.25-12.2 16.55-12.53 14.85-12.85 13.2-12.85L13.2-12.85Q9.85-12.85 7.78-11.53 5.7-10.2 5.7-7.9L5.7-7.9Q5.7-6.65 6.38-5.48 7.05-4.3 8.38-3.55 9.7-2.8 11.65-2.8L11.65-2.8Q13.7-2.8 15.55-3.63 17.4-4.45 18.5-5.7ZM70.6-15.6L70.6 0 66.2 0 66.2-14.6Q66.2-18.7 64.87-20.65 63.55-22.6 60.95-22.6L60.95-22.6Q58.3-22.6 56.15-20.68 54-18.75 53.1-15.7L53.1-15.7 53.1 0 48.7 0 48.7-14.6Q48.7-18.75 47.4-20.68 46.1-22.6 43.5-22.6L43.5-22.6Q40.9-22.6 38.72-20.73 36.55-18.85 35.65-15.75L35.65-15.75 35.65 0 31.25 0 31.25-26.1 35.25-26.1 35.25-20.5Q36.85-23.4 39.4-24.98 41.95-26.55 45.15-26.55L45.15-26.55Q48.4-26.55 50.35-24.78 52.3-23 52.75-20.2L52.75-20.2Q54.5-23.3 57-24.93 59.5-26.55 62.7-26.55L62.7-26.55Q64.95-26.55 66.47-25.73 68-24.9 68.9-23.43 69.8-21.95 70.2-19.95 70.6-17.95 70.6-15.6L70.6-15.6ZM75.4-7.55L75.4-7.55Q75.4-10.05 76.82-11.88 78.25-13.7 80.75-14.7 83.25-15.7 86.55-15.7L86.55-15.7Q88.3-15.7 90.25-15.43 92.2-15.15 93.7-14.6L93.7-14.6 93.7-16.5Q93.7-19.5 91.9-21.23 90.1-22.95 86.8-22.95L86.8-22.95Q84.65-22.95 82.67-22.18 80.7-21.4 78.5-19.95L78.5-19.95 76.9-23.05Q79.45-24.8 82-25.68 84.55-26.55 87.3-26.55L87.3-26.55Q92.3-26.55 95.2-23.78 98.1-21 98.1-16.05L98.1-16.05 98.1-5Q98.1-4.2 98.42-3.83 98.75-3.45 99.5-3.4L99.5-3.4 99.5 0Q98.85 0.1 98.37 0.15 97.9 0.2 97.6 0.2L97.6 0.2Q96.05 0.2 95.27-0.65 94.5-1.5 94.4-2.45L94.4-2.45 94.3-4.1Q92.6-1.9 89.85-0.7 87.1 0.5 84.4 0.5L84.4 0.5Q81.8 0.5 79.75-0.58 77.7-1.65 76.55-3.48 75.4-5.3 75.4-7.55ZM92.4-5.7L92.4-5.7Q93-6.4 93.35-7.13 93.7-7.85 93.7-8.35L93.7-8.35 93.7-11.6Q92.15-12.2 90.45-12.53 88.75-12.85 87.1-12.85L87.1-12.85Q83.75-12.85 81.67-11.53 79.6-10.2 79.6-7.9L79.6-7.9Q79.6-6.65 80.27-5.48 80.95-4.3 82.27-3.55 83.6-2.8 85.55-2.8L85.55-2.8Q87.6-2.8 89.45-3.63 91.3-4.45 92.4-5.7ZM103.09 0L103.09-2.85 119.54-22.9 103.54-22.9 103.54-26.1 124.49-26.1 124.49-23.25 108.14-3.2 124.54-3.2 124.54 0 103.09 0ZM140.69 0.5L140.69 0.5Q137.74 0.5 135.34-0.58 132.94-1.65 131.19-3.53 129.44-5.4 128.49-7.85 127.54-10.3 127.54-13L127.54-13Q127.54-15.75 128.49-18.2 129.44-20.65 131.19-22.53 132.94-24.4 135.37-25.48 137.79-26.55 140.74-26.55L140.74-26.55Q143.64-26.55 146.04-25.48 148.44-24.4 150.22-22.53 151.99-20.65 152.94-18.2 153.89-15.75 153.89-13L153.89-13Q153.89-10.3 152.94-7.85 151.99-5.4 150.24-3.53 148.49-1.65 146.07-0.58 143.64 0.5 140.69 0.5ZM132.04-12.95L132.04-12.95Q132.04-10.25 133.22-8.05 134.39-5.85 136.34-4.58 138.29-3.3 140.69-3.3L140.69-3.3Q143.09-3.3 145.07-4.6 147.04-5.9 148.22-8.13 149.39-10.35 149.39-13.05L149.39-13.05Q149.39-15.75 148.22-17.95 147.04-20.15 145.07-21.45 143.09-22.75 140.69-22.75L140.69-22.75Q138.29-22.75 136.34-21.43 134.39-20.1 133.22-17.9 132.04-15.7 132.04-12.95ZM181.89-15.6L181.89 0 177.49 0 177.49-14.6Q177.49-18.75 176.21-20.68 174.94-22.6 172.34-22.6L172.34-22.6Q170.54-22.6 168.76-21.7 166.99-20.8 165.61-19.28 164.24-17.75 163.64-15.75L163.64-15.75 163.64 0 159.24 0 159.24-26.1 163.24-26.1 163.24-20.5Q164.29-22.35 165.94-23.7 167.59-25.05 169.69-25.8 171.79-26.55 174.09-26.55L174.09-26.55Q176.34-26.55 177.86-25.73 179.39-24.9 180.26-23.43 181.14-21.95 181.51-19.95 181.89-17.95 181.89-15.6L181.89-15.6ZM210.33 0.5L210.33 0.5Q207.08 0.5 204.23-0.58 201.38-1.65 199.33-3.8L199.33-3.8 201.03-6.9Q203.28-4.8 205.53-3.9 207.78-3 210.13-3L210.13-3Q212.83-3 214.53-4.03 216.23-5.05 216.23-7.05L216.23-7.05Q216.23-8.5 215.36-9.2 214.48-9.9 212.88-10.38 211.28-10.85 209.08-11.45L209.08-11.45Q206.38-12.25 204.53-13.15 202.68-14.05 201.73-15.4 200.78-16.75 200.78-18.8L200.78-18.8Q200.78-21.3 202.08-23.03 203.38-24.75 205.66-25.65 207.93-26.55 210.83-26.55L210.83-26.55Q213.73-26.55 216.08-25.65 218.43-24.75 220.13-23L220.13-23 218.13-19.95Q216.58-21.55 214.73-22.33 212.88-23.1 210.58-23.1L210.58-23.1Q209.23-23.1 207.93-22.78 206.63-22.45 205.78-21.63 204.93-20.8 204.93-19.3L204.93-19.3Q204.93-18.05 205.61-17.32 206.28-16.6 207.61-16.1 208.93-15.6 210.83-15L210.83-15Q213.78-14.15 215.96-13.3 218.13-12.45 219.33-11.1 220.53-9.75 220.53-7.35L220.53-7.35Q220.53-3.65 217.73-1.58 214.93 0.5 210.33 0.5ZM237.33 0.5L237.33 0.5Q234.38 0.5 231.96-0.58 229.53-1.65 227.76-3.55 225.98-5.45 225.01-7.9 224.03-10.35 224.03-13.1L224.03-13.1Q224.03-16.8 225.68-19.85 227.33-22.9 230.33-24.73 233.33-26.55 237.28-26.55L237.28-26.55Q241.13-26.55 244.01-24.83 246.88-23.1 248.28-20.2L248.28-20.2 243.98-18.85Q242.98-20.7 241.18-21.73 239.38-22.75 237.18-22.75L237.18-22.75Q234.78-22.75 232.81-21.5 230.83-20.25 229.68-18.07 228.53-15.9 228.53-13.1L228.53-13.1Q228.53-10.35 229.71-8.13 230.88-5.9 232.86-4.6 234.83-3.3 237.23-3.3L237.23-3.3Q238.78-3.3 240.21-3.85 241.63-4.4 242.71-5.33 243.78-6.25 244.18-7.35L244.18-7.35 248.48-6.05Q247.68-4.15 246.06-2.68 244.43-1.2 242.21-0.35 239.98 0.5 237.33 0.5ZM267.28-26.25L267.28-22.25Q263.98-22.2 261.45-20.58 258.93-18.95 257.88-16.1L257.88-16.1 257.88 0 253.48 0 253.48-26.1 257.58-26.1 257.58-20.05Q258.93-22.75 261.15-24.43 263.38-26.1 265.83-26.3L265.83-26.3Q266.33-26.3 266.68-26.3 267.03-26.3 267.28-26.25L267.28-26.25ZM269.58-7.55L269.58-7.55Q269.58-10.05 271-11.88 272.43-13.7 274.93-14.7 277.43-15.7 280.73-15.7L280.73-15.7Q282.48-15.7 284.43-15.43 286.38-15.15 287.88-14.6L287.88-14.6 287.88-16.5Q287.88-19.5 286.08-21.23 284.28-22.95 280.98-22.95L280.98-22.95Q278.83-22.95 276.85-22.18 274.88-21.4 272.68-19.95L272.68-19.95 271.08-23.05Q273.63-24.8 276.18-25.68 278.73-26.55 281.48-26.55L281.48-26.55Q286.48-26.55 289.38-23.78 292.28-21 292.28-16.05L292.28-16.05 292.28-5Q292.28-4.2 292.6-3.83 292.93-3.45 293.68-3.4L293.68-3.4 293.68 0Q293.03 0.1 292.55 0.15 292.08 0.2 291.78 0.2L291.78 0.2Q290.23 0.2 289.45-0.65 288.68-1.5 288.58-2.45L288.58-2.45 288.48-4.1Q286.78-1.9 284.03-0.7 281.28 0.5 278.58 0.5L278.58 0.5Q275.98 0.5 273.93-0.58 271.88-1.65 270.73-3.48 269.58-5.3 269.58-7.55ZM286.58-5.7L286.58-5.7Q287.18-6.4 287.53-7.13 287.88-7.85 287.88-8.35L287.88-8.35 287.88-11.6Q286.33-12.2 284.63-12.53 282.93-12.85 281.28-12.85L281.28-12.85Q277.93-12.85 275.85-11.53 273.78-10.2 273.78-7.9L273.78-7.9Q273.78-6.65 274.45-5.48 275.13-4.3 276.45-3.55 277.78-2.8 279.73-2.8L279.73-2.8Q281.78-2.8 283.63-3.63 285.48-4.45 286.58-5.7ZM313.37 0.5L313.37 0.5Q310.17 0.5 307.67-1.1 305.17-2.7 303.72-5.15L303.72-5.15 303.72 10.65 299.32 10.65 299.32-26.1 303.22-26.1 303.22-21.2Q304.77-23.6 307.27-25.08 309.77-26.55 312.72-26.55L312.72-26.55Q315.42-26.55 317.67-25.45 319.92-24.35 321.57-22.45 323.22-20.55 324.15-18.13 325.07-15.7 325.07-13.05L325.07-13.05Q325.07-9.35 323.6-6.25 322.12-3.15 319.47-1.33 316.82 0.5 313.37 0.5ZM312.02-3.3L312.02-3.3Q313.97-3.3 315.55-4.13 317.12-4.95 318.25-6.33 319.37-7.7 319.97-9.45 320.57-11.2 320.57-13.05L320.57-13.05Q320.57-15 319.9-16.75 319.22-18.5 318-19.85 316.77-21.2 315.15-21.98 313.52-22.75 311.62-22.75L311.62-22.75Q310.42-22.75 309.15-22.3 307.87-21.85 306.72-21.03 305.57-20.2 304.77-19.15 303.97-18.1 303.72-16.9L303.72-16.9 303.72-9.45Q304.47-7.75 305.72-6.35 306.97-4.95 308.62-4.13 310.27-3.3 312.02-3.3ZM342.02 0.5L342.02 0.5Q339.07 0.5 336.65-0.58 334.22-1.65 332.44-3.53 330.67-5.4 329.69-7.85 328.72-10.3 328.72-13.05L328.72-13.05Q328.72-16.75 330.42-19.8 332.12-22.85 335.15-24.7 338.17-26.55 342.07-26.55L342.07-26.55Q346.02-26.55 348.94-24.68 351.87-22.8 353.5-19.78 355.12-16.75 355.12-13.25L355.12-13.25Q355.12-12.75 355.1-12.28 355.07-11.8 355.02-11.55L355.02-11.55 333.37-11.55Q333.57-9 334.8-7.03 336.02-5.05 337.97-3.93 339.92-2.8 342.17-2.8L342.17-2.8Q344.57-2.8 346.69-4 348.82-5.2 349.62-7.15L349.62-7.15 353.42-6.1Q352.57-4.2 350.9-2.7 349.22-1.2 346.94-0.35 344.67 0.5 342.02 0.5ZM333.22-14.6L333.22-14.6 351.02-14.6Q350.82-17.15 349.57-19.1 348.32-21.05 346.37-22.15 344.42-23.25 342.07-23.25L342.07-23.25Q339.77-23.25 337.82-22.15 335.87-21.05 334.65-19.1 333.42-17.15 333.22-14.6ZM373.82-26.25L373.82-22.25Q370.52-22.2 367.99-20.58 365.47-18.95 364.42-16.1L364.42-16.1 364.42 0 360.02 0 360.02-26.1 364.12-26.1 364.12-20.05Q365.47-22.75 367.69-24.43 369.92-26.1 372.37-26.3L372.37-26.3Q372.87-26.3 373.22-26.3 373.57-26.3 373.82-26.25L373.82-26.25Z" opacity="1" transform="matrix(1,0,0,1,0,0)" fill="#ffffff" class="wordmark-text-0" data-fill-palette-color="primary" id="text-0"></path></svg></g></svg></g></svg></g></svg></g><g transform="matrix(1,0,0,1,56.41717786410559,0)"><svg viewBox="0 0 80.1256442717888 48.35207841117601" height="48.35207841117601" width="80.1256442717888"><g><svg xmlns="http://www.w3.org/2000/svg" viewBox="7.158002853393555 22.8439998626709 90.00199890136719 54.31199645996094" x="0" y="0" height="48.35207841117601" width="80.1256442717888" class="icon-icon-0" data-fill-palette-color="accent" id="icon-0"><path d="M97.16 73.75c0 1.875-1.531 3.406-3.406 3.406l-83.19 0c-1.875 0-3.406-1.531-3.406-3.406l0-47.5c0-1.875 1.531-3.406 3.406-3.406l83.19 0c1.875 0 3.406 1.531 3.406 3.406l0 47.5m-9.188-1.594l0-44.31-70.906 0 0 44.31 70.906 0m-72.66-22.16c0-1.629-1.34-2.938-2.969-2.938-1.629 0-2.938 1.308-2.938 2.938 0 1.629 1.308 2.969 2.938 2.969 1.629 0 2.969-1.34 2.969-2.969" color="#ffffff" fill="#ffffff" data-fill-palette-color="accent"></path><path d="M32 39.977l7.444 20.04 22.643 0.048 8.757-24.34 7.134 0 0-2.219-9.02 0-2.123 6.466" color="#ffffff" fill="#ffffff" data-fill-palette-color="accent"></path><path d="M46.807 64.861a3.185 3.185 0 0 1-6.37 0 3.185 3.185 0 1 1 6.37 0" color="#ffffff" fill="#ffffff" data-fill-palette-color="accent"></path><path d="M61.11 64.922a3.185 3.185 0 0 1-6.37 0 3.185 3.185 0 1 1 6.37 0" color="#ffffff" fill="#ffffff" data-fill-palette-color="accent"></path></svg></g></svg></g><g></g></svg></g></svg></g></svg></g><defs></defs></svg><rect width="320" height="360" fill="none" stroke="none" visibility="hidden"></rect></g></svg></g></g></g></g><rect width="186.2146698987799" height="29.40648247697584" x="219.484589801448" y="215.24665137988086" rx="2.5" ry="2.5" fill="transparent" class="logo-element-hover-target"></rect><rect width="91.7269677882772" height="60.11152503966349" x="275.13652089414245" y="157.3468936309635" rx="2.5" ry="2.5" fill="transparent" class="logo-element-hover-target"></rect></svg>